<?xml version="1.0" encoding="utf-8"?>
<!-- Generator: Adobe Illustrator 25.0.0, SVG Export Plug-In . SVG Version: 6.00 Build 0)  -->
<svg version="1.1" id="Layer_1" xmlns="http://www.w3.org/2000/svg" xmlns:xlink="http://www.w3.org/1999/xlink" x="0px" y="0px"
	 viewBox="0 0 100 25" enable-background="new 0 0 100 25" xml:space="preserve">
<path fill="#009640" d="M27.13,16.09h-0.86c-1.43,0-2.59-1.17-2.59-2.59v-3.35c0-1.43,1.17-2.59,2.59-2.59h0.86
	c1.43,0,2.59,1.17,2.59,2.59v3.35C29.72,14.93,28.56,16.09,27.13,16.09z"/>
<path fill="#E30613" d="M16.38,16.09L16.38,16.09c-1.4,0-2.54-1.14-2.54-2.54v-3.02c0-1.4,1.14-2.54,2.54-2.54h0
	c1.4,0,2.54,1.14,2.54,2.54v3.02C18.92,14.95,17.78,16.09,16.38,16.09z"/>
<g>
	<path d="M6.1,10.78h4.22v2.58H6.1v3.78H3.3V6.19h7.63v2.63H6.1V10.78z"/>
	<path d="M11.94,9.79c0-2.52,2.26-3.76,4.53-3.76s4.55,1.25,4.55,3.76v3.74c0,2.51-2.26,3.76-4.53,3.76s-4.55-1.25-4.55-3.76V9.79z
		 M14.71,13.53c0,0.8,0.9,1.19,1.78,1.19s1.76-0.4,1.76-1.19V9.79c0-0.85-0.91-1.24-1.81-1.24c-0.87,0-1.73,0.43-1.73,1.24V13.53z"
		/>
	<path d="M22.23,9.79c0-2.52,2.26-3.76,4.53-3.76s4.55,1.25,4.55,3.76v3.74c0,2.51-2.26,3.76-4.53,3.76s-4.55-1.25-4.55-3.76V9.79z
		 M25,13.53c0,0.8,0.9,1.19,1.78,1.19s1.76-0.4,1.76-1.19V9.79c0-0.85-0.91-1.24-1.81-1.24C25.86,8.55,25,8.99,25,9.79V13.53z"/>
	<path d="M36.87,6.19c2.2,0,4.25,1.11,4.25,3.67v3.68c0,2.52-2.06,3.62-4.25,3.61h-4.1V6.19H36.87z M36.97,14.54
		c0.94,0,1.38-0.48,1.38-1.19V9.93c0-0.71-0.45-1.16-1.38-1.16h-1.41v5.77H36.97z"/>
	<path d="M49.43,11.31c1.5,0.76,1.69,2.17,1.55,3c-0.28,1.76-1.47,2.83-3.9,2.83h-4.47V6.19H47c2.09,0,3.62,1.25,3.56,3.34
		C50.54,10.02,50.22,10.9,49.43,11.31z M47,10.47c1.35,0,1.39-1.95,0-1.95h-1.61v1.95H47z M47,14.71c1.67,0,1.64-2.24,0-2.24h-1.61
		v2.24H47z"/>
	<path d="M61.34,17.14h-2.97l-0.71-2.2h-2.92l-0.68,2.2h-2.97L54.9,6.19h2.52L61.34,17.14z M56.99,12.48l-0.76-3.2h-0.08l-0.8,3.2
		H56.99z"/>
	<path d="M63.12,13.67c1.1,1.33,3.51,1.39,3.59,0.22c0.03-0.62-0.98-0.98-1.87-1.1c-1.76-0.28-3.37-1.39-3.37-3.48
		c0-2.15,1.95-3.28,3.96-3.28c1.33,0,2.61,0.37,3.74,1.75l-1.81,1.39C66.21,7.95,64.25,8,64.2,9.26c0.03,0.53,0.6,0.84,1.45,1.02
		c1.95,0.36,3.9,1.04,3.78,3.73c-0.09,2.12-2.32,3.28-4.33,3.28c-1.32,0-2.71-0.67-3.73-1.98L63.12,13.67z"/>
	<path d="M76.37,6.19h3.45l-4.33,5.29l4.32,5.66h-3.51l-2.8-3.91l-0.09,0.12v3.79h-2.79V6.19h2.79v4.05L76.37,6.19z"/>
	<path d="M83.31,10.49h4.44v2.4h-4.44v1.64h4.83v2.62h-7.63V6.19h7.63v2.6h-4.83V10.49z"/>
	<path d="M94.67,8.8v8.34h-2.8V8.8h-2.91V6.17h8.62V8.8H94.67z"/>
</g>
<g>
</g>
<g>
</g>
<g>
</g>
<g>
</g>
<g>
</g>
<g>
</g>
</svg>
